<?xml version="1.0" encoding="utf-8"?>
<!-- Generator: Adobe Illustrator 16.0.0, SVG Export Plug-In . SVG Version: 6.00 Build 0)  -->
<!DOCTYPE svg PUBLIC "-//W3C//DTD SVG 1.1//EN" "http://www.w3.org/Graphics/SVG/1.1/DTD/svg11.dtd">
<svg version="1.1" id="图层_1" xmlns="http://www.w3.org/2000/svg" xmlns:xlink="http://www.w3.org/1999/xlink" x="0px" y="0px"
	 width="176.208px" height="40px" viewBox="0 0 176.208 40" enable-background="new 0 0 176.208 40" xml:space="preserve">
<g>
	<g>
		<path fill="#999999" d="M6.028,29.675c0,2.354,1.909,4.265,4.264,4.265s4.263-1.91,4.263-4.265s-1.908-4.265-4.263-4.265
			S6.028,27.32,6.028,29.675"/>
		<path fill="#999999" d="M33.009,4.832c-0.662-0.703-1.6-1.144-2.642-1.144c-0.873,0-1.674,0.309-2.299,0.822
			c-0.271,0.223-0.509,0.483-0.706,0.774c-0.037,0.059-0.075,0.117-0.111,0.176c-0.744,1.18-1.539,2.323-2.383,3.428
			c-4.43,5.801-10.193,10.53-16.831,13.731c-0.182,0.087-0.365,0.174-0.547,0.259c-0.166,0.078-0.333,0.154-0.499,0.229
			c-2.402,1.209-4.049,3.695-4.049,6.567c0,3.852,2.961,7.008,6.731,7.323c0.204,0.017,0.411,0.027,0.62,0.027
			c2.318,0,4.385-1.073,5.731-2.751c0.438-0.545,0.8-1.152,1.069-1.808c0.052-0.143,0.106-0.283,0.158-0.425
			c0.929-2.457,2.032-4.827,3.295-7.099c2.884-5.189,6.601-9.853,10.969-13.811c0.379-0.343,0.764-0.681,1.152-1.013
			c0.018-0.016,0.037-0.032,0.055-0.048c0.778-0.665,1.271-1.653,1.271-2.755C33.993,6.354,33.618,5.481,33.009,4.832
			 M10.292,35.311c-3.113,0-5.636-2.522-5.636-5.636c0-3.112,2.523-5.635,5.636-5.635s5.636,2.522,5.636,5.635
			C15.928,32.788,13.405,35.311,10.292,35.311 M30.366,9.521c-1.219,0-2.207-0.988-2.207-2.205c0-1.219,0.988-2.206,2.207-2.206
			c1.217,0,2.205,0.987,2.205,2.206C32.571,8.533,31.583,9.521,30.366,9.521"/>
		<path fill="#999999" d="M39.519,23.342c-0.29,0-0.571,0.035-0.843,0.098c-0.034,0.009-0.069,0.019-0.104,0.026
			c-4.398,1.07-8.992,1.638-13.718,1.638c-0.878,0-1.75-0.022-2.618-0.062c-0.122,0.213-0.244,0.425-0.364,0.641
			c-1.23,2.212-2.306,4.533-3.199,6.896c-0.052,0.137-0.104,0.274-0.154,0.413l-0.01,0.024l-0.011,0.025
			c-0.063,0.156-0.133,0.31-0.205,0.46c5.841-1.862,12.065-2.866,18.524-2.866c0.832,0,1.659,0.018,2.483,0.051
			c0.025,0.001,0.051,0.002,0.078,0.003c0.046,0.002,0.093,0.004,0.14,0.004c2.03,0,3.677-1.646,3.677-3.676
			S41.549,23.342,39.519,23.342 M39.52,29.37c-1.298,0-2.352-1.053-2.352-2.353c0-1.299,1.053-2.353,2.352-2.353
			c1.3,0,2.353,1.054,2.353,2.353C41.873,28.317,40.82,29.37,39.52,29.37"/>
		<path fill="#FF7F2F" d="M17.028,35.527c-0.035,0.013-0.071,0.026-0.106,0.039c-0.179,0.201-0.367,0.394-0.563,0.579
			c-0.003,0.002-0.006,0.007-0.009,0.009c-0.05,0.047-0.103,0.093-0.154,0.14c-0.017,0.016-0.034,0.029-0.05,0.045
			c-0.037,0.032-0.073,0.064-0.111,0.096c-0.027,0.023-0.055,0.047-0.082,0.07c-0.022,0.018-0.046,0.037-0.069,0.056
			c-0.765,0.623-1.623,1.11-2.543,1.446c-0.066,0.024-0.134,0.049-0.202,0.07c-0.003,0.001-0.006,0.002-0.01,0.005
			c-0.066,0.021-0.132,0.043-0.199,0.063c-0.003,0.001-0.005,0.002-0.007,0.003c-0.204,0.063-0.411,0.119-0.62,0.168
			c-0.003,0-0.006,0.002-0.01,0.002c-0.045,0.011-0.089,0.02-0.133,0.029c-0.033,0.008-0.066,0.014-0.1,0.02
			c-0.038,0.009-0.077,0.017-0.115,0.023c-0.04,0.007-0.08,0.016-0.119,0.021c-0.036,0.006-0.073,0.012-0.109,0.018
			c-0.043,0.008-0.085,0.015-0.128,0.021c-0.035,0.005-0.068,0.009-0.104,0.016c-0.045,0.005-0.09,0.011-0.136,0.016
			c-0.032,0.004-0.066,0.009-0.1,0.013c-0.046,0.005-0.093,0.009-0.14,0.013c-0.033,0.004-0.065,0.006-0.098,0.009
			c-0.048,0.005-0.098,0.008-0.147,0.012c-0.031,0.001-0.061,0.003-0.091,0.005c-0.055,0.003-0.109,0.005-0.164,0.007
			c-0.025,0-0.051,0.002-0.077,0.002c-0.079,0.003-0.158,0.005-0.237,0.005c-0.001,0-0.002,0-0.004,0
			c-0.062,0-0.125-0.002-0.188-0.004c-2.945-0.061-5.537-1.557-7.105-3.816c-0.002-0.003-0.004-0.006-0.006-0.009
			c-0.076-0.11-0.149-0.222-0.22-0.334c-0.004-0.005-0.007-0.01-0.01-0.016c-0.07-0.111-0.137-0.225-0.202-0.339
			c-0.002-0.005-0.006-0.011-0.008-0.017c-0.065-0.116-0.127-0.233-0.188-0.351c-0.001-0.003-0.002-0.005-0.004-0.009
			c-0.362-0.721-0.63-1.5-0.784-2.318c-0.001-0.003-0.002-0.007-0.002-0.01c-0.024-0.129-0.046-0.259-0.065-0.392
			c-0.001-0.008-0.002-0.017-0.003-0.026c-0.018-0.126-0.032-0.254-0.045-0.384c0-0.011-0.001-0.023-0.002-0.035
			c-0.012-0.127-0.021-0.256-0.027-0.383c0-0.012,0-0.022-0.001-0.033c-0.006-0.132-0.01-0.264-0.01-0.396
			c0-0.095,0.002-0.189,0.006-0.284c0-0.022,0.001-0.047,0.002-0.071c0.002-0.08,0.006-0.158,0.012-0.237
			c0.001-0.016,0.002-0.031,0.003-0.047c0.014-0.202,0.035-0.399,0.063-0.598c0-0.005,0.001-0.01,0.002-0.015
			c0.444-3.148,2.542-5.766,5.388-6.945c0.164-0.077,0.326-0.154,0.479-0.229c1.176-0.565,2.326-1.185,3.447-1.852
			c-0.176-0.01-0.354-0.014-0.532-0.014C4.607,19.383,0,23.99,0,29.675c0,5.684,4.607,10.292,10.292,10.292
			c3.815,0,7.146-2.077,8.924-5.162C18.483,35.031,17.753,35.273,17.028,35.527"/>
		<path fill="#999999" d="M11.649,7.083c0.092,0.001,0.184,0.003,0.274,0.005c3.892,0.068,7.684,0.547,11.333,1.398
			c0.135-0.172,0.27-0.346,0.404-0.521c0.812-1.064,1.587-2.18,2.305-3.316l0.046-0.072c0.021-0.033,0.042-0.065,0.061-0.097
			l0.015-0.024l0.017-0.023c0.039-0.059,0.083-0.116,0.126-0.174c-4.514-0.7-8.823-2.02-12.835-3.874
			c-0.021-0.01-0.04-0.018-0.06-0.027c-0.449-0.208-0.95-0.324-1.478-0.324c-1.95,0-3.53,1.58-3.53,3.528
			C8.329,5.44,9.798,6.976,11.649,7.083 M11.858,1.6c1.082,0,1.96,0.877,1.96,1.96c0,1.083-0.878,1.961-1.96,1.961
			c-1.083,0-1.96-0.878-1.96-1.961C9.898,2.478,10.775,1.6,11.858,1.6"/>
	</g>
	<g>
		<g>
			<path fill="#ADADAD" d="M62.701,15.771c0.091,0.089,0.136,0.429,0.136,1.02c0,0.719-0.065,1.501-0.192,2.348
				c-0.129,0.847-0.341,1.739-0.637,2.675c-0.372,1.182-0.897,2.208-1.578,3.08c-0.514,0.667-1.078,1.206-1.694,1.617
				c-0.501,0.333-0.789,0.454-0.866,0.366c-0.116-0.13-0.334-0.36-0.654-0.693c-0.398-0.41-0.597-0.68-0.597-0.809
				c0-0.077,0.058-0.136,0.173-0.175c0.783-0.396,1.373-0.787,1.771-1.173c0.667-0.629,1.181-1.362,1.54-2.203
				c0.358-0.841,0.631-1.666,0.818-2.474c0.186-0.809,0.279-1.559,0.279-2.252l-1.424-0.039c-0.989,0-1.675,0.039-2.06,0.116
				c-0.167,0.026-0.25-0.02-0.25-0.134v-1.733c0-0.128,0.025-0.192,0.077-0.192c0.064,0.013,0.122,0.02,0.173,0.02
				c0.103,0.013,0.356,0.038,0.76,0.077s0.837,0.059,1.3,0.059c0.384,0,0.769-0.013,1.154-0.039
				c0.386-0.026,0.706-0.058,0.962-0.096c0.206,0,0.347,0.038,0.423,0.115C62.343,15.276,62.472,15.45,62.701,15.771z
				 M69.804,10.688l0.289-0.019c0.154,0.026,0.347,0.263,0.578,0.712c0.231,0.45,0.314,0.699,0.25,0.75
				c0.026,0.039-0.487,0.545-1.54,1.521c-1.103,1.026-1.886,1.719-2.348,2.079l-0.02,1.155l1.309-0.058
				c0.193,0,0.282,0.039,0.27,0.116V18.6c0.012,0.077-0.014,0.123-0.077,0.134c-0.104-0.012-0.168-0.019-0.193-0.019l-1.348-0.058
				v1.04l1.656-0.058c0.154-0.013,0.257-0.019,0.308-0.019c0.064,0,0.089,0.045,0.077,0.134v1.694
				c0.013,0.091-0.019,0.135-0.096,0.135c-0.116-0.013-0.212-0.019-0.289-0.019l-1.675-0.059v1.001l2.233-0.097
				c0.18-0.013,0.289-0.019,0.327-0.019c0.078,0,0.109,0.045,0.097,0.135V24.2c0.012,0.09-0.026,0.136-0.116,0.136
				c-0.116-0.014-0.219-0.02-0.308-0.02l-2.233-0.097l-0.019,2.56c0,0.205-0.045,0.417-0.135,0.635
				c-0.128,0.296-0.32,0.527-0.577,0.694c-0.167,0.103-0.411,0.183-0.731,0.24c-0.321,0.057-0.609,0.086-0.866,0.086
				c-0.398,0-0.597-0.025-0.597-0.076c-0.077-0.244-0.211-0.643-0.404-1.194c-0.025-0.141-0.044-0.275-0.058-0.403
				c0.051,0,0.09,0,0.117,0c0.14,0,0.25,0,0.327,0c0.141,0,0.25,0,0.327,0c0.437,0,0.694-0.02,0.771-0.058
				c0.102-0.026,0.154-0.154,0.154-0.386c0-0.18,0-0.333,0-0.461L65.3,24.2l-2.636,0.116c-0.103,0-0.173,0-0.212,0
				c-0.089,0-0.135-0.046-0.135-0.136v-1.635c0-0.091,0.039-0.136,0.116-0.136c0.089,0,0.166,0,0.231,0l2.656,0.097v-1.02
				l-2.079,0.077c-0.103,0-0.173,0-0.211,0c-0.089,0-0.134-0.046-0.134-0.136v-1.655c0-0.09,0.038-0.135,0.115-0.135
				c0.09,0,0.167,0,0.23,0l2.079,0.097l-0.02-1.097l-1.521,0.077c-0.154,0-0.23-0.044-0.23-0.135v-1.617
				c0-0.077,0.012-0.122,0.038-0.135c0.064,0,0.128,0,0.192,0l1.483,0.058l-0.058-1.848c0-0.052-0.02-0.134-0.058-0.25
				c-0.038-0.115-0.058-0.199-0.058-0.25c0-0.154,0.134-0.251,0.404-0.289l0.52,0.02l2.137-1.752l-2.56-0.057
				c-1.053,0-1.852,0.006-2.396,0.019c-0.545,0.014-1.005,0.059-1.377,0.135c-0.038,0.013-0.077,0.019-0.115,0.019
				c-0.04,0-0.065,0-0.077,0c-0.128,0-0.193-0.069-0.193-0.211v-1.521c0-0.206,0.122-0.282,0.366-0.231
				c0.269,0.065,0.756,0.113,1.463,0.145c0.705,0.032,1.481,0.048,2.329,0.048c1.564,0,2.499-0.007,2.799-0.02
				c0.302-0.012,0.645-0.064,1.031-0.154C69.625,10.65,69.753,10.65,69.804,10.688z M71.017,18.253l0.521-0.539
				c0.333-0.373,0.615-0.745,0.846-1.118c0.142-0.217,0.263-0.448,0.366-0.692c0.039-0.192,0.077-0.355,0.115-0.49
				c0.039-0.136,0.135-0.17,0.289-0.107c0.397,0.167,0.732,0.315,1.001,0.443c0.616,0.308,0.879,0.539,0.79,0.693
				c-0.051,0.089-0.148,0.192-0.289,0.307c-0.09,0.065-0.173,0.128-0.25,0.193l-1.251,1.597c-0.359,0.45-0.673,0.809-0.943,1.078
				c-0.36,0.36-0.629,0.584-0.809,0.674l0.212,0.616c0.423,1.116,0.956,2.021,1.598,2.714c0.628,0.476,1.263,0.943,1.905,1.405
				c0.064,0.077-0.003,0.238-0.202,0.481c-0.199,0.243-0.542,0.628-1.029,1.153c-0.18,0.193-0.688-0.146-1.521-1.02
				c-0.937-0.975-1.597-2.018-1.982-3.126c-0.385-1.111-0.67-2.297-0.856-3.562s-0.279-2.306-0.279-3.128
				c0-0.411,0.025-0.616,0.077-0.616l1.425-0.25c0.051,0.398,0.089,0.885,0.115,1.463C70.888,17.002,70.94,17.612,71.017,18.253z"/>
			<path fill="#ADADAD" d="M80.775,17.579c-0.115,0.116-0.263,0.231-0.442,0.347c-0.5,0.308-0.841,0.533-1.021,0.673
				c-0.282-0.359-0.59-0.75-0.924-1.174c-0.384-0.474-0.763-0.828-1.135-1.058c0.012-0.064,0.026-0.128,0.038-0.193l1.29-0.924
				c0.026-0.025,0.07-0.025,0.134,0c0.513,0.385,1.014,0.86,1.501,1.424C80.667,17.201,80.852,17.502,80.775,17.579z M82.624,20.255
				c0.128,0.051-0.071,0.873-0.597,2.463c-0.525,1.593-1.091,3.094-1.693,4.504c-0.039,0.089-0.071,0.277-0.097,0.559
				c-0.026,0.282-0.071,0.417-0.134,0.404c-0.103,0-0.437-0.17-1.001-0.51c-0.565-0.341-0.873-0.543-0.923-0.606
				c-0.051-0.053-0.077-0.11-0.077-0.173c0-0.091,0.047-0.189,0.144-0.299s0.189-0.208,0.279-0.299
				c0.436-0.705,0.866-1.641,1.289-2.81c0.283-0.782,0.565-1.7,0.848-2.752c0.103-0.411,0.205-0.827,0.308-1.251
				c0.18,0.051,0.359,0.103,0.539,0.154C81.982,19.947,82.354,20.152,82.624,20.255z M82.373,13.018
				c-0.116,0.116-0.263,0.23-0.443,0.346c-0.437,0.27-0.763,0.494-0.981,0.673c-0.27-0.359-0.571-0.75-0.905-1.174
				c-0.372-0.487-0.738-0.847-1.098-1.078c0.014-0.064,0.026-0.134,0.04-0.211l1.25-0.924c0.026-0.024,0.071-0.024,0.134,0
				c0.526,0.411,1.011,0.886,1.455,1.424C82.267,12.614,82.45,12.928,82.373,13.018z M87.782,21.506
				c-0.642,0-1.469,0.033-2.483,0.097c-0.398,0.025-0.7,0.038-0.905,0.038c-0.128,0-0.211,0-0.25,0
				c-0.103,0-0.153-0.044-0.153-0.135v-1.655c0-0.089,0.044-0.134,0.135-0.134c0.102,0,0.192,0,0.269,0
				c0.013,0,0.474,0.025,1.386,0.077c0.912,0.051,1.565,0.077,1.963,0.077l-0.058-1.213c-0.025-0.128-0.045-0.224-0.057-0.289
				c-0.025-0.103-0.039-0.16-0.039-0.172c0-0.128,0.077-0.186,0.231-0.174c0.475,0,0.953,0.013,1.434,0.039
				c0.482,0.026,0.768,0.09,0.857,0.193c0.064,0.089,0.012,0.295-0.154,0.616c-0.025,0.051-0.07,0.128-0.135,0.231l-0.02,0.77
				c0.668,0,1.264-0.016,1.79-0.048c0.525-0.032,1.084-0.068,1.675-0.106c0.193-0.013,0.308-0.02,0.346-0.02
				c0.091,0,0.128,0.044,0.116,0.134v1.694c0.012,0.09-0.032,0.134-0.136,0.134c-0.113-0.013-0.225-0.019-0.326-0.019
				c-0.629-0.038-1.258-0.073-1.887-0.105s-1.174-0.048-1.636-0.048l-0.02,1.597c0.553,0,1.366-0.02,2.444-0.057
				c1.079-0.038,1.797-0.059,2.156-0.059c0.244-0.012,0.392-0.019,0.443-0.019c0.088,0,0.121,0.039,0.096,0.114v1.578
				c0.013,0.053,0.013,0.084,0,0.098c-0.025,0.025-0.11,0.038-0.25,0.038c-0.116,0-0.213,0-0.289,0
				c-0.424,0-0.943-0.013-1.559-0.038c-1.541-0.065-2.547-0.098-3.022-0.098l0.116,3.466c0.051,0.18,0.006,0.27-0.136,0.27h-1.962
				c-0.129,0-0.18-0.09-0.154-0.27l0.154-3.484c-0.655,0-1.29,0.013-1.906,0.039c-1.848,0.077-2.803,0.115-2.868,0.115
				c-0.14,0-0.237,0-0.288,0c-0.116,0-0.174-0.046-0.174-0.136v-1.559c0-0.077,0.051-0.115,0.154-0.115c0.116,0,0.219,0,0.308,0
				c0.462,0,1.249,0.023,2.358,0.067c1.109,0.045,1.927,0.067,2.454,0.067L87.782,21.506z M84.99,12.979l-0.905,0.02
				c-0.141,0-0.23,0-0.269,0c-0.117,0-0.174-0.045-0.174-0.135v-1.597c0-0.077,0.052-0.116,0.154-0.116s0.199,0,0.288,0
				c0.244,0,0.931,0.019,2.06,0.057c1.128,0.039,1.86,0.059,2.194,0.059c0.309,0,0.956-0.02,1.944-0.059
				c0.988-0.038,1.643-0.057,1.964-0.057l0.942-0.096c0.192,0.039,0.382,0.23,0.567,0.577c0.188,0.347,0.254,0.552,0.203,0.616
				c0.051,0.103-0.213,0.532-0.79,1.289c-0.706,0.924-1.514,1.713-2.425,2.368c0.859,0.373,1.835,0.642,2.926,0.808
				c0.359,0.052,0.821,0.097,1.385,0.136c0.09,0.103,0.136,0.198,0.136,0.288s-0.046,0.206-0.136,0.347
				c-0.256,0.411-0.423,0.757-0.5,1.039c-0.012,0.09-0.174,0.135-0.48,0.135c-0.604,0-1.393-0.141-2.367-0.423
				c-1.117-0.321-2.072-0.725-2.869-1.213c-2.245,1.078-3.965,1.617-5.158,1.617c-0.283,0-0.423-0.058-0.423-0.173
				c0-0.218-0.187-0.642-0.558-1.271c-0.142-0.243-0.174-0.404-0.097-0.481c0.5-0.025,0.93-0.063,1.29-0.116
				c1.052-0.166,2.162-0.474,3.33-0.923c-0.5-0.5-0.95-0.994-1.347-1.481C85.478,13.705,85.183,13.3,84.99,12.979z M91.303,12.96
				l-2.964-0.097l-1.347,0.039c0.333,0.398,0.603,0.7,0.808,0.905c0.359,0.373,0.756,0.725,1.193,1.059
				c0.385-0.218,0.802-0.52,1.251-0.905C90.63,13.64,90.984,13.306,91.303,12.96z"/>
			<path fill="#ADADAD" d="M99.964,11.074c0.835,0,1.817,0.02,2.946,0.058c1.129,0.039,2.414,0.077,3.85,0.116
				c0.77,0,1.572-0.012,2.406-0.039c2.9-0.089,4.414-0.134,4.541-0.134c0.207-0.013,0.334-0.019,0.387-0.019
				c0.104,0,0.148,0.045,0.133,0.135v1.674c0.016,0.09-0.037,0.135-0.152,0.135c-0.129,0-0.252,0-0.367,0
				c-0.666,0-1.854-0.025-3.561-0.077c-1.705-0.051-2.834-0.077-3.387-0.077c-0.475,0-1.482,0.026-3.021,0.077
				s-2.645,0.077-3.312,0.077V25.99c0.861,0,1.853,0.017,2.976,0.049c1.121,0.031,2.395,0.073,3.818,0.125
				c0.809,0,1.643-0.013,2.504-0.038c3.002-0.09,4.561-0.136,4.678-0.136c0.203-0.013,0.338-0.019,0.402-0.019
				c0.104,0,0.148,0.044,0.137,0.134v1.675c0.012,0.089-0.047,0.135-0.174,0.135c-0.129,0-0.25,0-0.365,0
				c-0.695,0-1.92-0.025-3.678-0.077c-1.758-0.051-2.924-0.077-3.504-0.077c-0.602,0-1.814,0.026-3.637,0.077
				c-1.82,0.052-3.042,0.077-3.658,0.077c-0.257,0-0.396-0.012-0.423-0.038h-0.906c-0.139,0-0.21-0.148-0.21-0.442
				c0-0.514,0.013-1.585,0.038-3.215s0.049-3.41,0.068-5.341c0.018-1.931,0.027-4.404,0.027-7.419c0-0.115,0.016-0.228,0.049-0.337
				c0.032-0.109,0.086-0.164,0.163-0.164c0.206,0,0.433,0.016,0.684,0.047C99.667,11.039,99.849,11.061,99.964,11.074z
				 M105.395,15.059l2.943,0.096l3.521-0.115c0.221-0.013,0.355-0.019,0.404-0.019c0.09,0,0.131,0.045,0.115,0.134v1.674
				c0.016,0.09-0.037,0.135-0.152,0.135c-0.141-0.012-0.264-0.019-0.367-0.019l-3.311-0.116c-0.023,0.386-0.047,0.764-0.066,1.136
				c-0.018,0.372-0.061,0.75-0.125,1.136l4.926-0.154c0.195-0.013,0.314-0.02,0.367-0.02c0.09,0,0.127,0.045,0.115,0.135v1.694
				c0.012,0.089-0.031,0.135-0.135,0.135c-0.127,0-0.244,0-0.348,0c-0.563,0-1.463-0.026-2.693-0.077s-2.111-0.077-2.637-0.077
				c-0.115,0.334-0.262,0.677-0.441,1.03c-0.182,0.353-0.379,0.677-0.6,0.972c-0.639,0.86-1.48,1.553-2.52,2.079
				c-0.949,0.257-1.893,0.514-2.83,0.77c-0.064-0.333-0.211-0.699-0.443-1.097c-0.102-0.179-0.153-0.315-0.153-0.404
				s0.025-0.186,0.077-0.289c0.41-0.051,0.746-0.107,1.002-0.173c1.564-0.397,2.725-1.136,3.484-2.213l0.385-0.635
				c-0.502,0-1.26,0.022-2.273,0.067c-1.014,0.045-1.641,0.067-1.885,0.067c-0.129,0-0.213,0-0.25,0
				c-0.102,0-0.154-0.045-0.154-0.134v-1.694c0-0.089,0.045-0.134,0.135-0.134c0.102,0,0.191,0,0.27,0
				c0.475,0,1.271,0.022,2.396,0.067c1.123,0.045,1.908,0.067,2.357,0.067c0.207-0.859,0.309-1.591,0.309-2.194l-2.041,0.058
				l-0.27,0.019c-0.615,1.13-1.072,1.694-1.367,1.694c-0.051,0-0.109-0.019-0.172-0.058c-0.168-0.103-0.314-0.198-0.443-0.289
				c-0.475-0.333-0.783-0.539-0.924-0.616c0.064-0.116,0.135-0.231,0.211-0.346c0.592-0.654,1.018-1.232,1.281-1.732
				c0.262-0.501,0.459-0.947,0.586-1.338c0.129-0.392,0.205-0.639,0.23-0.742c0-0.154,0-0.269,0-0.347
				c0-0.179,0.098-0.269,0.289-0.269c0.117,0,0.465,0.138,1.051,0.413c0.584,0.277,0.861,0.485,0.836,0.626
				c-0.025,0.116-0.121,0.244-0.289,0.385c-0.027,0.013-0.07,0.038-0.135,0.077L105.395,15.059z M113.342,24.238
				c-0.166,0.155-0.373,0.328-0.615,0.521c-0.412,0.32-0.705,0.552-0.885,0.693c-0.449-0.463-1.014-0.957-1.695-1.482
				c-0.758-0.59-1.533-1.027-2.328-1.31l0.963-1.5c1.115,0.397,2.215,0.988,3.291,1.771
				C112.496,23.367,112.92,23.804,113.342,24.238z"/>
			<path fill="#ADADAD" d="M126.893,12.017c-0.104-0.257-0.211-0.522-0.326-0.798c-0.117-0.276-0.297-0.587-0.539-0.934l0.016-0.077
				c0.041-0.013,0.232-0.032,0.58-0.058c0.795-0.064,1.199-0.097,1.213-0.097l0.211,0.039c0.477,0.68,0.834,1.321,1.078,1.925
				c0.641,0,1.629-0.025,2.965-0.077c1.334-0.051,2.258-0.077,2.771-0.077c0.203-0.013,0.332-0.02,0.385-0.02
				c0.1,0,0.146,0.045,0.133,0.136v1.635c0.014,0.09-0.037,0.135-0.152,0.135c-0.143,0-0.264,0-0.365,0
				c-0.666,0-1.855-0.026-3.561-0.078c-1.705-0.05-2.836-0.076-3.389-0.076c-0.514,0-1.402,0.022-2.666,0.067
				c-1.264,0.045-2.139,0.067-2.627,0.067l0.018,2.58c0,1.385-0.018,2.54-0.057,3.464c-0.076,1.771-0.211,3.08-0.404,3.927
				c-0.281,1.244-0.691,2.314-1.23,3.214c-0.449,0.756-0.758,1.091-0.926,1c-1.037-0.553-1.59-0.847-1.654-0.885
				c-0.064-0.104-0.129-0.205-0.193-0.309c0.426-0.463,0.746-0.865,0.963-1.212c0.68-1.053,1.129-2.2,1.348-3.446l0.115-0.885
				c-0.129,0.089-0.389,0.276-0.779,0.559s-0.74,0.521-1.047,0.711c-0.041,0.026-0.104,0.098-0.195,0.212
				c-0.09,0.115-0.164,0.182-0.23,0.193c-0.205,0.038-0.463-0.256-0.77-0.886c-0.115-0.309-0.23-0.623-0.348-0.943
				c0.348-0.051,0.809-0.243,1.387-0.577c0.654-0.372,1.355-0.873,2.098-1.501c0-0.218,0-0.385,0-0.5c0-0.192,0-0.34,0-0.443
				c0-0.167,0-0.288,0-0.365c0-0.141,0-0.243,0-0.308c0-0.115,0-0.206,0-0.27c0-0.103,0-0.18,0-0.231
				c0-0.231-0.002-0.456-0.008-0.673c-0.008-0.218-0.01-0.423-0.01-0.616c0-0.655-0.02-1.36-0.059-2.118
				c-0.039-0.757-0.057-1.18-0.057-1.271c0-0.281,0.039-0.423,0.115-0.423l1.809,0.154c0.475,0,1.229,0.022,2.262,0.067
				C125.799,11.995,126.508,12.017,126.893,12.017z M120.213,17.792c-0.141,0.09-0.34,0.179-0.596,0.269
				c-0.525,0.193-0.828,0.315-0.904,0.366c-0.168-0.347-0.336-0.699-0.5-1.059c-0.221-0.513-0.457-1.021-0.715-1.521l0.021-0.115
				c0.076-0.051,0.338-0.174,0.789-0.366c0.256-0.115,0.43-0.198,0.52-0.25c0.025,0,0.076,0.013,0.154,0.039
				c0.385,0.552,0.715,1.114,0.992,1.684C120.25,17.41,120.328,17.728,120.213,17.792z M132.84,15.097l0.402-0.039
				c0.092,0,0.189,0.121,0.291,0.365c0.219,0.488,0.289,0.802,0.213,0.943c-0.285,0.551-0.889,1.237-1.811,2.06
				c-0.746,0.667-1.451,1.225-2.117,1.674c0,1.052-0.006,2.157-0.018,3.31c-0.016,1.155-0.029,2.246-0.041,3.272
				c0,0.193-0.057,0.404-0.174,0.635c-0.152,0.296-0.377,0.52-0.674,0.675c-0.217,0.102-0.49,0.183-0.816,0.24
				c-0.328,0.058-0.627,0.086-0.895,0.086c-0.385,0-0.578-0.025-0.578-0.077c-0.129-0.373-0.314-0.743-0.559-1.116
				c-0.051-0.116-0.096-0.23-0.135-0.347c0.064,0,0.109,0,0.135,0c0.141,0,0.25,0,0.328,0c0.154,0,0.268,0,0.346,0
				c0.463,0,0.754-0.022,0.875-0.066c0.121-0.046,0.184-0.215,0.184-0.51c-0.014-0.181-0.02-0.328-0.02-0.443
				c0-1.117-0.012-2.108-0.039-2.974c-0.025-0.865-0.049-1.916-0.076-3.147c-0.09-0.231-0.135-0.397-0.135-0.5
				c0-0.153,0.162-0.25,0.482-0.29l0.557,0.02c0.396-0.283,0.797-0.564,1.193-0.847c0.488-0.359,0.924-0.712,1.309-1.059
				l-2.924-0.077c-0.645,0-1.295,0.013-1.955,0.039s-1.447,0.051-2.357,0.077c-0.152,0-0.258,0-0.309,0
				c-0.129,0-0.191-0.045-0.191-0.135v-1.636c0-0.09,0.057-0.134,0.172-0.134c0.129,0,0.238,0,0.328,0l4.313,0.096
				c0.551,0,1.219-0.009,2-0.029c0.783-0.019,1.502-0.041,2.156-0.066C132.479,15.097,132.658,15.097,132.84,15.097z"/>
			<path fill="#ADADAD" d="M151.473,20.813l0.037-1.617c0-1.399-0.01-3.005-0.029-4.822c-0.02-1.815-0.047-2.829-0.088-3.04
				c-0.037-0.212-0.07-0.402-0.094-0.568c0-0.154,0.076-0.225,0.229-0.212c0.438,0.026,0.881,0.055,1.33,0.086
				c0.447,0.032,0.705,0.1,0.768,0.202c0.08,0.103,0.033,0.321-0.133,0.655c-0.025,0.05-0.072,0.128-0.135,0.23
				c-0.014,0.641-0.02,1.174-0.02,1.597c-0.051,2.939-0.076,4.908-0.076,5.909l0.02,1.366c0.873-0.115,1.596-0.237,2.174-0.366
				c0.217-0.05,0.332-0.058,0.348-0.019c0.012,0.089,0.031,0.147,0.059,0.173l0.229,1.751l-0.057,0.175
				c-0.025,0.076-0.184,0.131-0.471,0.163c-0.291,0.031-1.043,0.048-2.264,0.048l0.078,5.582c0.025,0.192-0.02,0.288-0.137,0.288
				h-1.789c-0.129,0-0.178-0.096-0.152-0.288l0.135-5.429l-1.215,0.115c-2.141,0.22-3.734,0.411-4.771,0.578
				c-0.193,0.025-0.295,0.031-0.309,0.019c-0.078-0.063-0.115-0.107-0.115-0.134l-0.27-1.79l0.021-0.097l-0.08,0.077
				c-0.141-0.115-0.275-0.237-0.404-0.365c-0.705-0.912-1.178-1.47-1.424-1.675v0.674c0,0.898,0.025,2.453,0.078,4.668
				c0.051,2.213,0.088,3.351,0.115,3.416c0.037,0.103-0.012,0.166-0.154,0.192h-1.752c-0.141,0-0.191-0.064-0.152-0.192
				c0.037-0.104,0.084-1.277,0.133-3.523c0.051-2.245,0.078-3.631,0.078-4.157l-0.154,0.366c-0.436,1.001-0.865,1.847-1.289,2.54
				c-0.258,0.31-0.514,0.617-0.77,0.925c-0.205-0.154-0.436-0.336-0.686-0.55c-0.25-0.211-0.463-0.381-0.645-0.509
				c0.219-0.23,0.545-0.658,0.982-1.281c0.436-0.622,0.859-1.446,1.271-2.472c0.346-0.873,0.604-1.637,0.768-2.29l-2.289,0.077
				c-0.207,0-0.307-0.045-0.307-0.135v-1.598c0-0.089,0.029-0.134,0.094-0.134c0.076,0,0.15,0,0.213,0l2.713,0.077l0.02-0.461
				l-0.037-2.06c-0.297,0.064-0.611,0.123-0.943,0.173c-0.334,0.052-0.584,0.077-0.752,0.077c-0.191,0-0.303-0.058-0.336-0.173
				s-0.125-0.288-0.279-0.519c-0.207-0.271-0.404-0.54-0.598-0.809c0.156-0.038,0.314-0.077,0.482-0.115
				c1.166-0.078,2.07-0.2,2.713-0.366s1.17-0.327,1.578-0.481c0.77-0.295,1.176-0.443,1.213-0.443c0.064,0,0.141,0.029,0.232,0.087
				c0.088,0.058,0.299,0.321,0.635,0.789c0.334,0.469,0.449,0.748,0.346,0.838c-0.076,0.064-0.199,0.096-0.365,0.096
				c-0.143,0-0.277,0-0.404,0l-1.656,0.423l0.02,0.077l-0.059,2.714l0.137,0.154l2.252-0.077c0.127-0.013,0.211-0.02,0.25-0.02
				c0.088,0,0.129,0.045,0.113,0.135v1.636c0.027,0.09-0.025,0.134-0.152,0.134c-0.102-0.012-0.174-0.019-0.211-0.019l-2.426-0.077
				l-0.02,1.5l0.809-0.847l0.137,0.02c0.525,0.475,1.02,0.975,1.479,1.501c0.195,0.308,0.395,0.616,0.6,0.923l-1.041,0.962
				c0.014-0.013,0.031-0.02,0.059-0.02c0.115,0.013,0.27,0.02,0.461,0.02c0.527,0,1.053-0.016,1.58-0.048
				c0.525-0.031,1.559-0.118,3.098-0.259L151.473,20.813z M149.584,18.869c-0.102,0.103-0.359,0.283-0.768,0.539
				c-0.193,0.116-0.426,0.289-0.693,0.52c-0.285-0.372-0.592-0.775-0.926-1.212c-0.396-0.513-0.77-0.885-1.115-1.116
				c0.012-0.064,0.025-0.135,0.039-0.212l1.289-0.942c0.025-0.026,0.07-0.026,0.135,0c0.525,0.397,1.016,0.879,1.473,1.443
				C149.473,18.453,149.66,18.78,149.584,18.869z M150.047,14.134c-0.129,0.141-0.275,0.263-0.443,0.365
				c-0.475,0.296-0.813,0.526-1.02,0.693c-0.281-0.372-0.59-0.777-0.924-1.213c-0.373-0.487-0.744-0.846-1.117-1.078
				c0.014-0.064,0.027-0.134,0.039-0.212l1.289-0.943c0.025-0.026,0.07-0.026,0.135,0c0.502,0.385,0.994,0.873,1.484,1.463
				C149.938,13.75,150.123,14.057,150.047,14.134z"/>
			<path fill="#ADADAD" d="M160.729,15.578l-2.367,0.077c-0.115,0-0.193,0-0.23,0c-0.102,0-0.154-0.045-0.154-0.135v-1.636
				c0-0.089,0.045-0.134,0.135-0.134s0.172,0,0.25,0c0.258,0,0.68,0.017,1.27,0.048c0.592,0.032,0.951,0.048,1.078,0.048
				l-0.037-3.003c0-0.05-0.027-0.128-0.078-0.231c-0.051-0.103-0.076-0.173-0.076-0.211c0-0.078,0.031-0.134,0.096-0.173
				c0.076-0.039,0.225-0.071,0.443-0.097c0.32,0.013,0.654,0.036,1,0.068c0.346,0.032,0.578,0.119,0.695,0.26
				c0.049,0.064,0.018,0.191-0.098,0.384c-0.064,0.116-0.098,0.199-0.098,0.25c-0.037,0.142-0.068,0.507-0.086,1.097
				c-0.018,0.59-0.027,1.129-0.027,1.617l1.598-0.058c0.203-0.013,0.326-0.02,0.365-0.02c0.076,0,0.107,0.045,0.096,0.135v1.675
				c0.012,0.09-0.025,0.134-0.117,0.134c-0.127-0.013-0.24-0.019-0.344-0.019l-1.619-0.058v3.195
				c0.797-0.436,1.572-0.897,2.33-1.385c0.039-0.026,0.082-0.02,0.135,0.019c0.014,0.013,0.023,0.026,0.037,0.039v1.887
				c-0.023,0.064-0.057,0.103-0.096,0.115c-0.152,0.09-0.283,0.167-0.385,0.231c-0.795,0.488-1.469,0.879-2.021,1.174l0.021,5.621
				c0,0.204-0.053,0.43-0.156,0.673c-0.141,0.335-0.34,0.584-0.596,0.751c-0.191,0.128-0.438,0.222-0.73,0.279
				c-0.297,0.058-0.586,0.087-0.867,0.087c-0.385,0-0.576-0.025-0.576-0.077c-0.205-0.515-0.404-1.02-0.6-1.521
				c0.016-0.078,0.033-0.147,0.059-0.211c0.092,0,0.191,0,0.299,0c0.109,0,0.248,0.006,0.414,0.019c0.219,0,0.402-0.007,0.549-0.019
				c0.146-0.015,0.256-0.053,0.326-0.116c0.07-0.064,0.109-0.187,0.117-0.366c0.006-0.179,0.008-0.313,0.008-0.404
				c0-0.165,0-0.295,0-0.386l0.039-3.443l-1.076,0.461c-0.041,0.014-0.139,0.095-0.299,0.241c-0.16,0.147-0.299,0.233-0.414,0.259
				c-0.141,0.039-0.373-0.256-0.693-0.884c-0.104-0.206-0.25-0.533-0.443-0.982c-0.051-0.116-0.006-0.186,0.135-0.212
				c0.129,0,0.258-0.006,0.387-0.019c0.256-0.09,0.576-0.206,0.961-0.347s0.873-0.347,1.463-0.615L160.729,15.578z M171.123,14.962
				v2.637c0.936,0,1.674-0.058,2.213-0.173c0.154-0.025,0.25-0.039,0.289-0.039c0.104,0,0.166,0.045,0.191,0.135
				c0.053,0.077,0.123,0.219,0.213,0.423c0.025,0.064,0.064,0.16,0.117,0.289c0.1,0.245-0.072,1.026-0.521,2.349
				c-0.539,1.591-1.238,2.848-2.1,3.772c0.758,0.604,1.516,1.104,2.273,1.502c0.949,0.5,1.627,0.749,2.039,0.749
				c0.129,0,0.193,0.052,0.193,0.155c0,0.141-0.123,0.371-0.367,0.692c-0.102,0.129-0.338,0.398-0.711,0.809
				c-0.039,0.039-0.102,0.058-0.193,0.058c-0.332,0-0.918-0.237-1.75-0.711c-0.951-0.553-1.887-1.233-2.811-2.041
				c-1.002,0.833-2.092,1.552-3.273,2.154c-1.025,0.527-1.584,0.733-1.674,0.618c-0.191-0.258-0.467-0.579-0.828-0.964
				c-0.256-0.27-0.383-0.455-0.383-0.558c0-0.065,0.051-0.129,0.152-0.193c0.348-0.103,0.641-0.198,0.885-0.288
				c1.412-0.538,2.695-1.212,3.85-2.021c-0.627-0.77-1.162-1.68-1.596-2.733c-0.336-0.821-0.559-1.579-0.674-2.271l-0.73,0.096
				c-0.039,0.013-0.08,0.02-0.117,0.02c-0.051,0-0.084,0-0.096,0c-0.143,0-0.213-0.07-0.213-0.212v-1.559
				c0-0.205,0.135-0.281,0.404-0.231c0.27,0.064,0.709,0.109,1.32,0.135c0.607,0.026,1.279,0.038,2.01,0.038v-2.617
				c-0.795,0-1.518,0.016-2.166,0.048s-1.217,0.061-1.701,0.086c-0.129,0-0.221,0-0.271,0c-0.102,0-0.154-0.044-0.154-0.134v-1.617
				c0-0.09,0.053-0.135,0.154-0.135c0.104,0,0.191,0,0.271,0c0.73,0.039,1.447,0.074,2.154,0.105
				c0.705,0.033,1.277,0.048,1.713,0.048v-2.675c-0.053-0.142-0.078-0.25-0.078-0.327c0-0.051,0.031-0.103,0.096-0.154
				c0.016-0.013,0.098-0.02,0.254-0.02c0.408,0,0.813,0.022,1.209,0.067c0.398,0.045,0.617,0.112,0.656,0.202
				c0.025,0.052-0.027,0.186-0.156,0.404c-0.076,0.128-0.113,0.238-0.113,0.327v2.175c0.744,0,1.43-0.015,2.061-0.048
				c0.627-0.031,1.287-0.067,1.98-0.105c0.205-0.013,0.334-0.019,0.387-0.019c0.088,0,0.127,0.045,0.115,0.134V15
				c0.012,0.09-0.039,0.135-0.154,0.135c-0.131-0.013-0.246-0.02-0.348-0.02c-0.729-0.039-1.463-0.074-2.193-0.106
				C172.219,14.978,171.611,14.962,171.123,14.962z M172.297,19.312c-0.244,0-0.703-0.013-1.375-0.039
				c-0.676-0.025-1.082-0.038-1.223-0.038l-1.637,0.019c0.166,0.668,0.398,1.297,0.693,1.887c0.396,0.782,0.891,1.476,1.482,2.078
				c0.512-0.513,0.961-1.182,1.346-2.001C171.867,20.615,172.104,19.979,172.297,19.312z"/>
		</g>
	</g>
</g>
</svg>
